<svg xmlns="http://www.w3.org/2000/svg" width="122" height="32" viewBox="0 0 122 32" fill="none"><path d="M41.8207 15.7224C41.2642 15.3113 40.5874 15.0985 39.8973 15.1177C39.1234 15.1177 38.7283 15.4003 38.7283 15.798C38.7283 16.1956 39.1398 16.4914 39.93 16.5078C41.5235 16.5571 43.4469 16.8891 43.4632 19.137C43.4796 20.4516 42.4836 21.8812 39.9137 21.8812C38.5134 21.9235 37.1497 21.4276 36.0996 20.4943L37.1184 18.8051C37.9096 19.475 38.9124 19.8386 39.9463 19.8305C40.6353 19.8469 41.1807 19.5676 41.1643 19.137C41.1643 18.7558 40.8835 18.4403 39.7831 18.4074C38.2679 18.3417 36.3804 17.714 36.3804 15.7947C36.3804 13.9411 38.1209 13.1655 39.881 13.1655C41.0123 13.1113 42.122 13.4906 42.9865 14.227L41.8207 15.7224Z" fill="#333333"></path><path d="M47.0889 9.99731V14.4143C47.6852 13.6632 48.5995 13.2403 49.5543 13.2739C51.4613 13.2739 52.7904 14.2829 52.7904 17.1947V21.5788H50.4262V17.2111C50.4262 16.0674 49.8155 15.4397 48.8783 15.4397C47.8987 15.4397 47.0725 16.1332 47.0725 17.4412V21.5788H44.7051V9.99731H47.0889Z" fill="#333333"></path><path d="M56.9981 11.2364C56.9981 13.0242 54.3008 13.0242 54.3008 11.2364C54.3008 9.44854 56.9981 9.45182 56.9981 11.2364ZM54.4673 13.389V21.5789H56.8348V13.389H54.4673Z" fill="#333333"></path><path d="M65.4689 13.4056L67.0298 18.618L67.5555 16.7611L68.6919 13.4023H71.337L68.3295 21.6185H65.9783L64.5317 17.5301L63.1015 21.6185H60.7373L57.7461 13.4023H60.3911L61.5242 16.7611L62.0434 18.618L63.6043 13.4056H65.4689Z" fill="#333333"></path><path d="M78.2575 13.4054H80.478V21.5788H78.3391L78.2085 20.5534C77.6664 21.4112 76.4974 21.7431 75.7104 21.7596C73.2777 21.776 71.5176 20.1886 71.5176 17.4872C71.5176 14.7857 73.3756 13.1852 75.7627 13.2148C76.7815 13.2148 77.722 13.6124 78.1628 14.342L78.2575 13.4054ZM73.885 17.4905C73.8557 18.0693 74.0712 18.6337 74.4781 19.0438C74.885 19.454 75.4454 19.6717 76.0207 19.6431C76.5805 19.6608 77.124 19.4515 77.5292 19.0623C77.9344 18.673 78.1674 18.1363 78.1759 17.5726C78.1759 16.3993 77.4346 15.3247 76.0207 15.3247C75.4439 15.2989 74.8831 15.5193 74.4764 15.9317C74.0698 16.3442 73.855 16.9102 73.885 17.4905Z" fill="#333333"></path><path d="M83.0605 21.5789V15.5548H81.6367V13.5534H83.067V13.0735C83.067 10.7073 84.7781 9.78697 86.3553 9.78697C87.1596 9.78109 87.9463 10.0243 88.6085 10.4838L87.7954 12.1599C87.4428 11.9479 87.0403 11.8345 86.6296 11.8313C85.921 11.8313 85.4279 12.2256 85.4279 13.0867V13.5665H87.6811V15.568H85.4279V21.5789H83.0605Z" fill="#333333"></path><path d="M88.2656 17.507C88.2656 15.0422 90.0094 13.2346 92.7034 13.2346C95.3974 13.2346 97.1575 15.0553 97.1575 17.507C97.1575 19.9587 95.466 21.7597 92.7034 21.7597C89.9408 21.7597 88.2656 19.9719 88.2656 17.507ZM94.7574 17.507C94.7574 16.4817 94.1337 15.3577 92.7034 15.3577C91.2731 15.3577 90.6657 16.4817 90.6657 17.507C90.6657 18.5324 91.2731 19.6432 92.7034 19.6432C94.1337 19.6432 94.7574 18.5817 94.7574 17.507Z" fill="#333333"></path><path d="M100.681 13.4219L100.864 14.3158C101.349 13.5976 102.17 13.1836 103.032 13.2214C103.766 13.2028 104.478 13.4701 105.021 13.9674L104.041 15.8538C103.663 15.5744 103.204 15.4287 102.735 15.4397C102.227 15.4092 101.731 15.5975 101.37 15.9576C101.009 16.3176 100.818 16.8154 100.844 17.3262V21.5789H98.4766V13.4219H100.681Z" fill="#333333"></path><path d="M112.659 20.5043C111.81 21.3334 110.667 21.7856 109.485 21.7597C107.12 21.7597 105.047 20.4451 105.047 17.507C105.047 14.7628 107.104 13.2346 109.468 13.2346C110.654 13.2346 111.591 13.5008 112.407 14.3619L111.101 15.8671C110.66 15.5375 110.122 15.3683 109.573 15.3873C109.002 15.3532 108.443 15.5644 108.035 15.9685C107.627 16.3726 107.409 16.9317 107.434 17.507C107.419 18.0645 107.635 18.603 108.031 18.9929C108.427 19.3828 108.967 19.5888 109.521 19.5611C110.12 19.5564 110.698 19.3387 111.153 18.9465L112.659 20.5043Z" fill="#333333"></path><path d="M115.36 18.2695C115.477 19.0615 116.232 19.7188 117.557 19.7188C118.312 19.7426 119.052 19.5112 119.66 19.0615L120.993 20.5503C120.121 21.4081 118.707 21.7564 117.508 21.7564C114.57 21.7564 112.953 20.0212 112.953 17.4051C112.953 14.9238 114.615 13.1853 117.26 13.1853C120.023 13.1853 121.832 14.9238 121.323 18.2662L115.36 18.2695ZM119.21 16.5309C119.158 15.637 118.253 15.2163 117.267 15.2163C116.281 15.2163 115.592 15.7126 115.36 16.5309H119.21Z" fill="#333333"></path><path fill-rule="evenodd" clip-rule="evenodd" d="M15.7363 31.675C24.4272 31.675 31.4725 24.5843 31.4725 15.8375C31.4725 7.09069 24.4272 0 15.7363 0C7.04537 0 0 7.09069 0 15.8375C0 24.5843 7.04537 31.675 15.7363 31.675ZM10.2814 16.4093C9.19716 16.408 8.25907 15.6496 8.02403 14.5843C7.789 13.5191 8.31998 12.4324 9.30175 11.9693L20.2084 6.85227C20.958 6.50003 21.8373 6.57701 22.5152 7.0542C23.1931 7.5314 23.5665 8.33632 23.4948 9.16576C23.4231 9.9952 22.9172 10.7231 22.1677 11.0754L11.2578 16.1924C10.9522 16.3364 10.6188 16.4104 10.2814 16.4093ZM8.02403 23.2146C8.25907 24.2799 9.19716 25.0383 10.2814 25.0396C10.6188 25.0407 10.9522 24.9666 11.2578 24.8227L22.1677 19.7024C23.3255 19.1579 23.8255 17.7718 23.2845 16.6065C22.7434 15.4412 21.3662 14.938 20.2084 15.4825L9.30175 20.5996C8.31998 21.0626 7.789 22.1494 8.02403 23.2146Z" fill="#333333"></path></svg>